<svg width="240" height="240" fill="none" xmlns="http://www.w3.org/2000/svg"><path d="M120 240c66.274 0 120-53.726 120-120S186.274 0 120 0 0 53.726 0 120s53.726 120 120 120z" fill="#CEE5FF"/><path d="M195.865 18.53H56.271c-6.627 0-12 5.373-12 12v155.04c0 6.627 5.373 12 12 12h139.594c6.628 0 12-5.373 12-12V30.53c0-6.627-5.372-12-12-12z" fill="#133578"/><path d="M183.594 5.584H44c-6.627 0-12 5.373-12 12v155.04c0 6.628 5.373 12 12 12h139.594c6.627 0 12-5.372 12-12V17.584c0-6.627-5.373-12-12-12z" fill="#fff"/><path d="M32 17.584c0-6.627 5.373-12 12-12h139.594c6.628 0 12 5.373 12 12v12.308H32V17.584z" fill="#0075FF"/><path d="M66.36 66.617H55.37a8 8 0 00-8 8v10.99a8 8 0 008 8h10.99a8 8 0 008-8v-10.99a8 8 0 00-8-8zm0 34.991H55.37a8 8 0 00-8 8v10.99a8 8 0 008 8h10.99a8 8 0 008-8v-10.99a8 8 0 00-8-8zm0 34.99H55.37a8 8 0 00-8 8v10.99a8 8 0 008 8h10.99a8 8 0 008-8v-10.99a8 8 0 00-8-8zm33.991-69.981h-10.99a8 8 0 00-8 8v10.99a8 8 0 008 8h10.99a8 8 0 008-8v-10.99a8 8 0 00-8-8z" fill="#EFF0F7"/><path d="M100.351 101.608h-10.99a8 8 0 00-8 8v10.99a8 8 0 008 8h10.99a8 8 0 008-8v-10.99a8 8 0 00-8-8z" fill="#4B3CFB"/><path d="M100.351 136.598h-10.99a8 8 0 00-8 8v10.99a8 8 0 008 8h10.99a8 8 0 008-8v-10.99a8 8 0 00-8-8zm33.99-69.981h-10.99a8 8 0 00-8 8v10.99a8 8 0 008 8h10.99a8 8 0 008-8v-10.99a8 8 0 00-8-8zm0 34.991h-10.99a8 8 0 00-8 8v10.99a8 8 0 008 8h10.99a8 8 0 008-8v-10.99a8 8 0 00-8-8zm0 34.99h-10.99a8 8 0 00-8 8v10.99a8 8 0 008 8h10.99a8 8 0 008-8v-10.99a8 8 0 00-8-8zm33.99-69.981h-10.99a8 8 0 00-8 8v10.99a8 8 0 008 8h10.99a8 8 0 008-8v-10.99a8 8 0 00-8-8zm0 34.991h-10.99a8 8 0 00-8 8v10.99a8 8 0 008 8h10.99a8 8 0 008-8v-10.99a8 8 0 00-8-8zm0 34.99h-10.99a8 8 0 00-8 8v10.99a8 8 0 008 8h10.99a8 8 0 008-8v-10.99a8 8 0 00-8-8z" fill="#EFF0F7"/><path opacity=".6" d="M70.36 46.511H51.37a4 4 0 100 8h18.99a4 4 0 000-8zm33.991 0h-18.99a4 4 0 100 8h18.99a4 4 0 000-8zm33.99 0h-18.99a4 4 0 000 8h18.99a4 4 0 000-8zm33.99 0h-18.99a4 4 0 000 8h18.99a4 4 0 000-8z" fill="#A0A3BD"/></svg>