<svg width="258" height="240" fill="none" xmlns="http://www.w3.org/2000/svg"><path d="M120.459 240c66.528 0 120.459-53.726 120.459-120S186.987 0 120.459 0 0 53.726 0 120s53.931 120 120.459 120z" fill="#CEE5FF"/><g filter="url(#filter0_i_1_255)"><path d="M59.398 40.722c-7.386 0-13.38 5.972-13.38 13.344 0 7.357 5.995 13.328 13.38 13.328 7.4 0 13.394-5.971 13.394-13.328 0-7.372-5.994-13.344-13.394-13.344z" fill="#fff"/></g><g filter="url(#filter1_i_1_255)"><path d="M72.792 75.009c0 12.629-10.282 22.858-22.945 22.858-12.677 0-22.945-10.23-22.945-22.858 0-12.615 10.268-22.858 22.945-22.858 12.663 0 22.945 10.243 22.945 22.858z" fill="#fff"/></g><g filter="url(#filter2_i_1_255)"><path d="M111.025 63.58c0 14.729-11.975 26.672-26.76 26.672-14.785 0-26.774-11.943-26.774-26.672 0-14.729 11.989-26.658 26.774-26.658s26.76 11.929 26.76 26.658z" fill="#fff"/></g><path d="M96.897 157.808H29.998c-3.155 0-5.78-2.443-5.994-5.572l-5.407-75.044a3.009 3.009 0 013.012-3.2H105.3c1.749 0 3.126 1.471 2.997 3.2l-5.392 75.044a6.018 6.018 0 01-6.009 5.572z" fill="#133578"/><path d="M101.587 151.211H34.688c-3.155 0-5.78-2.443-5.994-5.572l-5.407-75.044a3.009 3.009 0 013.012-3.2h83.692c1.749 0 3.126 1.471 2.997 3.2l-5.392 75.044a6.018 6.018 0 01-6.009 5.572z" fill="#1D53BB"/><path d="M110.207 85.352H26.084c-1.663 0-3.011-1.343-3.011-2.986V70.395c0-1.658 1.348-3 3.011-3h84.123a3.005 3.005 0 013.011 3v11.971c0 1.643-1.348 2.986-3.011 2.986z" fill="#0075FF"/><g filter="url(#filter3_i_1_255)"><path d="M35.731 25.42c0 4.214-3.427 7.614-7.643 7.614-4.23 0-7.658-3.4-7.658-7.614 0-4.215 3.427-7.615 7.658-7.615 4.216 0 7.643 3.4 7.643 7.615z" fill="url(#paint0_radial_1_255)"/></g><g filter="url(#filter4_i_1_255)"><path d="M65.476 23.844c0 3.343-2.72 6.04-6.065 6.04-3.356 0-6.076-2.697-6.076-6.04 0-3.344 2.72-6.041 6.076-6.041 3.346 0 6.065 2.697 6.065 6.041z" fill="url(#paint1_radial_1_255)"/></g><g filter="url(#filter5_i_1_255)"><path d="M34.151 46.763c0 3.344-2.72 6.041-6.065 6.041-3.356 0-6.075-2.697-6.075-6.04 0-3.344 2.719-6.042 6.076-6.042 3.345 0 6.064 2.698 6.064 6.041z" fill="url(#paint2_radial_1_255)"/></g><path d="M18.11 119.853a3.825 3.825 0 005.479.272L67.9 79.281a3.793 3.793 0 00.359-5.372c-1.391-1.6-3.8-1.743-5.392-.371l-44.485 41.015a3.793 3.793 0 00-.272 5.3z" fill="#133578"/><path fill-rule="evenodd" clip-rule="evenodd" d="M205.095 182.444v-10.557c0-2.906 2.362-5.258 5.299-5.258h15.875c2.918 0 5.279 2.352 5.279 5.258v10.557h10.596c5.835 0 10.578 4.705 10.578 10.537v10.537a5.275 5.275 0 01-5.299 5.278h-58.204c-2.917 0-5.298-2.353-5.298-5.278v-10.537c0-5.832 4.743-10.537 10.597-10.537h10.577zm-81.217-42.8v3.182c-30.687-11.309-74.079-17.763-74.079 26.669v5.649c-6.386 4.243-10.597 11.481-10.597 19.695 0 13.087 10.657 23.683 23.774 23.683a23.732 23.732 0 0014.712-5.08H141.4c16.629 0 30.104-13.246 30.104-29.594 0-12.672-9.347-19.908-20.44-28.033a52.452 52.452 0 00-.734-.487v-15.684a5.271 5.271 0 00-5.279-5.278h-15.876a5.275 5.275 0 00-5.298 5.278z" fill="#133578"/><path d="M144.232 133.21V55.914c0-21.825 17.761-39.538 39.689-39.538 21.908 0 39.689 17.713 39.689 39.538v126.52" stroke="#133578" stroke-width="15.815" stroke-miterlimit="10"/><path d="M157.449 150.804h-26.453v-21.073a5.275 5.275 0 015.298-5.279h15.876a5.271 5.271 0 015.279 5.279v21.073zm79.377 36.908h-26.453v-21.093c0-2.906 2.362-5.258 5.299-5.258h15.875c2.917 0 5.279 2.352 5.279 5.258v21.093z" fill="#1D53BB"/><path d="M252.701 203.528h-58.203c-2.917 0-5.299-2.353-5.299-5.279v-10.536c0-5.832 4.743-10.537 10.597-10.537h47.627c5.834 0 10.577 4.705 10.577 10.537v10.536a5.276 5.276 0 01-5.299 5.279zm-195.784 0h91.602c16.629 0 30.103-13.245 30.103-29.594 0-12.672-9.346-19.907-20.439-28.032-16.034-10.913-101.266-48.592-101.266 13.68v43.946z" fill="#0075FF"/><path d="M93.867 184.925c0 13.087-10.656 23.683-23.773 23.683-13.118 0-23.774-10.596-23.774-23.683 0-13.067 10.656-23.663 23.774-23.663 13.117 0 23.773 10.596 23.773 23.663z" fill="#1D53BB"/><defs><filter id="filter0_i_1_255" x="46.018" y="40.722" width="26.774" height="26.672" filterUnits="userSpaceOnUse" color-interpolation-filters="sRGB"><feFlood flood-opacity="0" result="BackgroundImageFix"/><feBlend in="SourceGraphic" in2="BackgroundImageFix" result="shape"/><feColorMatrix in="SourceAlpha" values="0 0 0 0 0 0 0 0 0 0 0 0 0 0 0 0 0 0 127 0" result="hardAlpha"/><feOffset/><feGaussianBlur stdDeviation="2"/><feComposite in2="hardAlpha" operator="arithmetic" k2="-1" k3="1"/><feColorMatrix values="0 0 0 0 0 0 0 0 0 0 0 0 0 0 0 0 0 0 0.11 0"/><feBlend in2="shape" result="effect1_innerShadow_1_255"/></filter><filter id="filter1_i_1_255" x="26.902" y="52.151" width="45.89" height="45.715" filterUnits="userSpaceOnUse" color-interpolation-filters="sRGB"><feFlood flood-opacity="0" result="BackgroundImageFix"/><feBlend in="SourceGraphic" in2="BackgroundImageFix" result="shape"/><feColorMatrix in="SourceAlpha" values="0 0 0 0 0 0 0 0 0 0 0 0 0 0 0 0 0 0 127 0" result="hardAlpha"/><feOffset/><feGaussianBlur stdDeviation="2"/><feComposite in2="hardAlpha" operator="arithmetic" k2="-1" k3="1"/><feColorMatrix values="0 0 0 0 0 0 0 0 0 0 0 0 0 0 0 0 0 0 0.11 0"/><feBlend in2="shape" result="effect1_innerShadow_1_255"/></filter><filter id="filter2_i_1_255" x="57.491" y="36.922" width="53.534" height="53.33" filterUnits="userSpaceOnUse" color-interpolation-filters="sRGB"><feFlood flood-opacity="0" result="BackgroundImageFix"/><feBlend in="SourceGraphic" in2="BackgroundImageFix" result="shape"/><feColorMatrix in="SourceAlpha" values="0 0 0 0 0 0 0 0 0 0 0 0 0 0 0 0 0 0 127 0" result="hardAlpha"/><feOffset/><feGaussianBlur stdDeviation="2"/><feComposite in2="hardAlpha" operator="arithmetic" k2="-1" k3="1"/><feColorMatrix values="0 0 0 0 0 0 0 0 0 0 0 0 0 0 0 0 0 0 0.11 0"/><feBlend in2="shape" result="effect1_innerShadow_1_255"/></filter><filter id="filter3_i_1_255" x="20.43" y="17.805" width="15.302" height="15.229" filterUnits="userSpaceOnUse" color-interpolation-filters="sRGB"><feFlood flood-opacity="0" result="BackgroundImageFix"/><feBlend in="SourceGraphic" in2="BackgroundImageFix" result="shape"/><feColorMatrix in="SourceAlpha" values="0 0 0 0 0 0 0 0 0 0 0 0 0 0 0 0 0 0 127 0" result="hardAlpha"/><feOffset/><feGaussianBlur stdDeviation="2"/><feComposite in2="hardAlpha" operator="arithmetic" k2="-1" k3="1"/><feColorMatrix values="0 0 0 0 0 0 0 0 0 0 0 0 0 0 0 0 0 0 0.11 0"/><feBlend in2="shape" result="effect1_innerShadow_1_255"/></filter><filter id="filter4_i_1_255" x="53.335" y="17.803" width="12.14" height="12.082" filterUnits="userSpaceOnUse" color-interpolation-filters="sRGB"><feFlood flood-opacity="0" result="BackgroundImageFix"/><feBlend in="SourceGraphic" in2="BackgroundImageFix" result="shape"/><feColorMatrix in="SourceAlpha" values="0 0 0 0 0 0 0 0 0 0 0 0 0 0 0 0 0 0 127 0" result="hardAlpha"/><feOffset/><feGaussianBlur stdDeviation="2"/><feComposite in2="hardAlpha" operator="arithmetic" k2="-1" k3="1"/><feColorMatrix values="0 0 0 0 0 0 0 0 0 0 0 0 0 0 0 0 0 0 0.11 0"/><feBlend in2="shape" result="effect1_innerShadow_1_255"/></filter><filter id="filter5_i_1_255" x="22.011" y="40.722" width="12.14" height="12.082" filterUnits="userSpaceOnUse" color-interpolation-filters="sRGB"><feFlood flood-opacity="0" result="BackgroundImageFix"/><feBlend in="SourceGraphic" in2="BackgroundImageFix" result="shape"/><feColorMatrix in="SourceAlpha" values="0 0 0 0 0 0 0 0 0 0 0 0 0 0 0 0 0 0 127 0" result="hardAlpha"/><feOffset/><feGaussianBlur stdDeviation="2"/><feComposite in2="hardAlpha" operator="arithmetic" k2="-1" k3="1"/><feColorMatrix values="0 0 0 0 0 0 0 0 0 0 0 0 0 0 0 0 0 0 0.11 0"/><feBlend in2="shape" result="effect1_innerShadow_1_255"/></filter><radialGradient id="paint0_radial_1_255" cx="0" cy="0" r="1" gradientUnits="userSpaceOnUse" gradientTransform="matrix(0 7.61447 -7.65075 0 28.08 25.42)"><stop stop-color="#268AFF"/><stop offset="1" stop-color="#0075FF"/></radialGradient><radialGradient id="paint1_radial_1_255" cx="0" cy="0" r="1" gradientUnits="userSpaceOnUse" gradientTransform="matrix(0 6.04099 -6.07024 0 59.406 23.844)"><stop stop-color="#268AFF"/><stop offset="1" stop-color="#0075FF"/></radialGradient><radialGradient id="paint2_radial_1_255" cx="0" cy="0" r="1" gradientUnits="userSpaceOnUse" gradientTransform="matrix(0 6.04099 -6.07024 0 28.08 46.763)"><stop stop-color="#268AFF"/><stop offset="1" stop-color="#0075FF"/></radialGradient></defs></svg>