<svg width="40" height="40" viewBox="0 0 40 40" fill="none" xmlns="http://www.w3.org/2000/svg">
<path d="M19.6016 39.2031C30.4272 39.2031 39.2031 30.4272 39.2031 19.6016C39.2031 8.7759 30.4272 0 19.6016 0C8.7759 0 0 8.7759 0 19.6016C0 30.4272 8.7759 39.2031 19.6016 39.2031Z" fill="#0075FF"/>
<path d="M17.6414 27.4423C17.1396 27.4423 16.6378 27.2502 16.2556 26.868L10.3751 20.9875C9.60869 20.2211 9.60869 18.9823 10.3751 18.2158C11.1415 17.4494 12.3803 17.4494 13.1468 18.2158L17.6414 22.7105L26.0564 14.2955C26.8228 13.5291 28.0616 13.5291 28.828 14.2955C29.5944 15.0619 29.5944 16.3008 28.828 17.0672L19.0272 26.868C18.645 27.2502 18.1432 27.4423 17.6414 27.4423Z" fill="#EDF5FF"/>
</svg>
