<svg xmlns="http://www.w3.org/2000/svg" width="25" height="25" viewBox="0 0 25 25"><g><g><path fill="#fff" d="M12.254 24.432c-6.51 0-11.808-5.36-11.808-11.949 0-4.903 2.932-9.125 7.114-10.965a.734.734 0 0 1 .16-.07 11.624 11.624 0 0 1 4.534-.915c6.512 0 11.81 5.36 11.81 11.95 0 6.589-5.298 11.95-11.81 11.95zm0-22.405c-1.074 0-2.111.167-3.086.477.793 1.027 2.21 3.046 4.03 6.415 4.053-1.538 5.301-3.66 5.646-4.483a10.212 10.212 0 0 0-6.59-2.409zm1.74 8.404c.387.752.734 1.492 1.046 2.213 3.54-.788 6.412-.215 7.544.089a10.484 10.484 0 0 0-2.62-7.205c-.667 1.245-2.276 3.24-6.064 4.72l.094.183zM17.6 21.427a10.484 10.484 0 0 0 4.84-7.182c-.684-.201-3.397-.88-6.823-.19 1.243 3.23 1.77 5.934 1.983 7.372zM1.923 12.483c0 2.785 1.082 5.32 2.842 7.195.702-1.205 2.677-3.963 6.894-5.895a17.077 17.077 0 0 1 1.936-.75 34.545 34.545 0 0 0-1.106-2.292c-3.492 1.108-6.51 1.357-8.517 1.357-.898 0-1.594-.05-2.038-.095-.007.159-.011.32-.011.48zm10.331 10.455c1.398 0 2.732-.283 3.95-.794-.148-1.146-.634-4.12-2.036-7.723-.62.19-1.256.428-1.9.723-4.293 1.968-6.009 4.852-6.382 5.567a10.204 10.204 0 0 0 6.368 2.227zM7.732 3.083a10.476 10.476 0 0 0-5.626 7.432c1.3.123 5.05.294 9.669-1.115C9.82 5.818 8.36 3.86 7.732 3.083z"/></g></g></svg>