<svg xmlns="http://www.w3.org/2000/svg" width="13" height="24" viewBox="0 0 13 24"><g><g><path fill="#fff" d="M8.117 2.046c.09 0 .14.003.14.003h1.962l-.01 2.26H8.26c-1.072 0-1.047.919-1.047.919V8.81h3.792l-.53 2.257H7.202v11.296h-2.25l-.002-11.296h-2.99l-.006-2.257h2.998V5.298c0-3.062 2.535-3.252 3.166-3.252.631 0 0 0 0 0zm-2.594-.813c-.947.57-2.074 1.74-2.074 4.065v2.006H1.953A1.503 1.503 0 0 0 .451 8.816l.006 2.258c.003.83.675 1.501 1.502 1.501h1.488l.002 9.79c0 .832.672 1.506 1.502 1.506H7.2c.83 0 1.502-.674 1.502-1.507v-9.789h1.774c.666 0 1.253-.44 1.44-1.082l.53-2.257a1.51 1.51 0 0 0-.239-1.328 1.498 1.498 0 0 0-1.202-.604h-2.29V5.817h1.492c.827 0 1.499-.67 1.502-1.5l.01-2.184a1.503 1.503 0 0 0-1.498-1.59H8.3a3.576 3.576 0 0 0-.183-.004c-.54 0-1.595.09-2.594.694z"/></g></g></svg>