<svg xmlns="http://www.w3.org/2000/svg" width="23" height="19" viewBox="0 0 23 19"><g><g><path fill="#fff" d="M15.544 1.73c1.163 0 2.212.475 2.951 1.237a8.29 8.29 0 0 0 2.566-.95 3.953 3.953 0 0 1-1.777 2.166 8.302 8.302 0 0 0 2.322-.618 8.113 8.113 0 0 1-2.017 2.027c.007.167.011.337.011.505 0 5.174-4.066 11.14-11.502 11.14-2.282 0-4.408-.651-6.196-1.761.316.037.637.055.963.055a8.278 8.278 0 0 0 5.022-1.676c-1.77-.03-3.264-1.163-3.776-2.718a4.141 4.141 0 0 0 1.825-.067c-1.85-.358-3.243-1.94-3.243-3.838v-.05c.546.294 1.169.47 1.832.49-1.085-.703-1.799-1.9-1.799-3.258 0-.718.2-1.39.548-1.966 1.993 2.365 4.972 3.924 8.332 4.089a3.798 3.798 0 0 1-.105-.892c0-2.163 1.81-3.915 4.043-3.915 2.234 0 0 0 0 0zm-5.402 3.214a10.198 10.198 0 0 1-5.792-3.4 1.406 1.406 0 0 0-2.281.179 5.209 5.209 0 0 0-.42 4.518c-.23.255-.363.589-.363.941v.05c0 1.376.545 2.652 1.45 3.61-.052.24-.04.492.039.734.312.947.88 1.764 1.616 2.386a7.079 7.079 0 0 1-2.322.119 1.406 1.406 0 0 0-1.494.93c-.219.62.024 1.31.584 1.657a13.138 13.138 0 0 0 6.94 1.973c8 0 12.813-6.254 12.907-12.363A9.434 9.434 0 0 0 22.73 4.41a1.404 1.404 0 0 0-.32-1.999 1.403 1.403 0 0 0-1.35-1.798c-.241 0-.484.062-.702.188a6.77 6.77 0 0 1-1.486.632A5.566 5.566 0 0 0 15.544.326c-2.762 0-5.05 2.015-5.402 4.618z"/></g></g></svg>